<svg id="visual" viewBox="0 0 900 600" width="900" height="600" xmlns="http://www.w3.org/2000/svg" xmlns:xlink="http://www.w3.org/1999/xlink" version="1.1"><rect width="900" height="600" fill="#C8E6C9"></rect><g><g transform="translate(843 21)"><path d="M0 -65.7L51.4 -41L64 14.6L28.5 59.2L-28.5 59.2L-64 14.6L-51.4 -41Z" fill="none" stroke="#43A047" stroke-width="2"></path></g><g transform="translate(214 266)"><path d="M0 -44L34.4 -27.4L42.9 9.8L19.1 39.6L-19.1 39.6L-42.9 9.8L-34.4 -27.4Z" fill="none" stroke="#43A047" stroke-width="2"></path></g><g transform="translate(687 213)"><path d="M0 -26L20.3 -16.2L25.3 5.8L11.3 23.4L-11.3 23.4L-25.3 5.8L-20.3 -16.2Z" fill="none" stroke="#43A047" stroke-width="2"></path></g><g transform="translate(202 475)"><path d="M0 -28L21.9 -17.5L27.3 6.2L12.1 25.2L-12.1 25.2L-27.3 6.2L-21.9 -17.5Z" fill="none" stroke="#43A047" stroke-width="2"></path></g><g transform="translate(648 370)"><path d="M0 -39L30.5 -24.3L38 8.7L16.9 35.1L-16.9 35.1L-38 8.7L-30.5 -24.3Z" fill="none" stroke="#43A047" stroke-width="2"></path></g><g transform="translate(442 196)"><path d="M0 -48L37.5 -29.9L46.8 10.7L20.8 43.2L-20.8 43.2L-46.8 10.7L-37.5 -29.9Z" fill="none" stroke="#43A047" stroke-width="2"></path></g><g transform="translate(411 588)"><path d="M0 -51L39.9 -31.8L49.7 11.3L22.1 45.9L-22.1 45.9L-49.7 11.3L-39.9 -31.8Z" fill="none" stroke="#43A047" stroke-width="2"></path></g><g transform="translate(375 368)"><path d="M0 -16L12.5 -10L15.6 3.6L6.9 14.4L-6.9 14.4L-15.6 3.6L-12.5 -10Z" fill="none" stroke="#43A047" stroke-width="2"></path></g><g transform="translate(673 33)"><path d="M0 -64L50 -39.9L62.4 14.2L27.8 57.7L-27.8 57.7L-62.4 14.2L-50 -39.9Z" fill="none" stroke="#43A047" stroke-width="2"></path></g><g transform="translate(810 573)"><path d="M0 -28L21.9 -17.5L27.3 6.2L12.1 25.2L-12.1 25.2L-27.3 6.2L-21.9 -17.5Z" fill="none" stroke="#43A047" stroke-width="2"></path></g><g transform="translate(70 96)"><path d="M0 -37L28.9 -23.1L36.1 8.2L16.1 33.3L-16.1 33.3L-36.1 8.2L-28.9 -23.1Z" fill="none" stroke="#43A047" stroke-width="2"></path></g><g transform="translate(883 246)"><path d="M0 -41L32.1 -25.6L40 9.1L17.8 36.9L-17.8 36.9L-40 9.1L-32.1 -25.6Z" fill="none" stroke="#43A047" stroke-width="2"></path></g><g transform="translate(800 428)"><path d="M0 -28L21.9 -17.5L27.3 6.2L12.1 25.2L-12.1 25.2L-27.3 6.2L-21.9 -17.5Z" fill="none" stroke="#43A047" stroke-width="2"></path></g><g transform="translate(557 576)"><path d="M0 -28L21.9 -17.5L27.3 6.2L12.1 25.2L-12.1 25.2L-27.3 6.2L-21.9 -17.5Z" fill="none" stroke="#43A047" stroke-width="2"></path></g><g transform="translate(307 118)"><path d="M0 -21L16.4 -13.1L20.5 4.7L9.1 18.9L-9.1 18.9L-20.5 4.7L-16.4 -13.1Z" fill="none" stroke="#43A047" stroke-width="2"></path></g><g transform="translate(53 269)"><path d="M0 -32L25 -20L31.2 7.1L13.9 28.8L-13.9 28.8L-31.2 7.1L-25 -20Z" fill="none" stroke="#43A047" stroke-width="2"></path></g><g transform="translate(185 26)"><path d="M0 -38L29.7 -23.7L37 8.5L16.5 34.2L-16.5 34.2L-37 8.5L-29.7 -23.7Z" fill="none" stroke="#43A047" stroke-width="2"></path></g><g transform="translate(508 12)"><path d="M0 -16L12.5 -10L15.6 3.6L6.9 14.4L-6.9 14.4L-15.6 3.6L-12.5 -10Z" fill="none" stroke="#43A047" stroke-width="2"></path></g><g transform="translate(566 144)"><path d="M0 -57L44.6 -35.5L55.6 12.7L24.7 51.4L-24.7 51.4L-55.6 12.7L-44.6 -35.5Z" fill="none" stroke="#43A047" stroke-width="2"></path></g><g transform="translate(509 318)"><path d="M0 -44L34.4 -27.4L42.9 9.8L19.1 39.6L-19.1 39.6L-42.9 9.8L-34.4 -27.4Z" fill="none" stroke="#43A047" stroke-width="2"></path></g><g transform="translate(78 574)"><path d="M0 -53L41.4 -33L51.7 11.8L23 47.8L-23 47.8L-51.7 11.8L-41.4 -33Z" fill="none" stroke="#43A047" stroke-width="2"></path></g><g transform="translate(36 437)"><path d="M0 -27L21.1 -16.8L26.3 6L11.7 24.3L-11.7 24.3L-26.3 6L-21.1 -16.8Z" fill="none" stroke="#43A047" stroke-width="2"></path></g><g transform="translate(481 449)"><path d="M0 -58L45.3 -36.2L56.5 12.9L25.2 52.3L-25.2 52.3L-56.5 12.9L-45.3 -36.2Z" fill="none" stroke="#43A047" stroke-width="2"></path></g><g transform="translate(262 594)"><path d="M0 -17L13.3 -10.6L16.6 3.8L7.4 15.3L-7.4 15.3L-16.6 3.8L-13.3 -10.6Z" fill="none" stroke="#43A047" stroke-width="2"></path></g><g transform="translate(694 510)"><path d="M0 -40L31.3 -24.9L39 8.9L17.4 36L-17.4 36L-39 8.9L-31.3 -24.9Z" fill="none" stroke="#43A047" stroke-width="2"></path></g></g></svg>